<svg width="131" height="124" viewBox="0 0 131 124" fill="none" xmlns="http://www.w3.org/2000/svg">
<path d="M130.505 30.5443V44.3305C130.505 46.1211 129.033 47.5885 127.236 47.5885H3.85827C2.06142 47.5885 0.588867 46.1211 0.588867 44.3305V30.5443C0.588867 28.7401 2.06142 27.2861 3.85827 27.2861H127.236C129.033 27.2861 130.505 28.7401 130.505 30.5443Z" fill="#CBD2D6"/>
<path d="M122.547 47.5886V117.718C122.547 121.084 119.805 123.817 116.427 123.817H14.6662C11.2886 123.817 8.5459 121.084 8.5459 117.718V47.5886H122.547Z" fill="#CBD2D6"/>
<path d="M122.547 53.1622H8.5459V47.5884H122.547V53.1622Z" fill="#7B8A95"/>
<path d="M81.2059 62.5058V65.5215C81.2059 66.5178 80.3955 67.3255 79.3955 67.3255H51.699C50.6993 67.3255 49.8887 66.5178 49.8887 65.5215V62.5058C49.8887 61.5095 50.6993 60.7017 51.699 60.7017H79.3955C80.3955 60.7017 81.2059 61.5095 81.2059 62.5058Z" fill="#7B8A95"/>
<path d="M42.4996 99.3274V111.458C42.4996 112.414 41.7159 113.194 40.7566 113.194H17.7606C16.8014 113.194 16.0312 112.414 16.0312 111.458V99.3274C16.0312 98.3714 16.8014 97.5906 17.7606 97.5906H40.7566C41.7159 97.5906 42.4996 98.3714 42.4996 99.3274Z" fill="white"/>
<path d="M111.309 104.302H107.351V111.824C107.351 112.161 107.076 112.434 106.738 112.434H104.18C103.842 112.434 103.568 112.161 103.568 111.824V104.302H99.612C99.2172 104.302 99.0195 103.826 99.2986 103.548L105.149 97.7188C105.32 97.5478 105.598 97.5478 105.77 97.7188L111.622 103.55C111.901 103.828 111.703 104.302 111.309 104.302Z" fill="#292D32"/>
<path d="M97.3417 104.302H93.3831V111.824C93.3831 112.161 93.1088 112.434 92.7705 112.434H90.2129C89.8745 112.434 89.6003 112.161 89.6003 111.824V104.302H85.6443C85.2494 104.302 85.0517 103.826 85.3309 103.548L91.1811 97.7188C91.3526 97.5478 91.6309 97.5478 91.8025 97.7188L97.6544 103.55C97.9329 103.828 97.7356 104.302 97.3417 104.302Z" fill="#292D32"/>
<path d="M84.4437 19.7025C84.4437 30.1504 75.9442 38.6202 65.4597 38.6202C54.975 38.6202 46.4756 30.1504 46.4756 19.7025C46.4756 9.25459 54.975 0.784912 65.4597 0.784912C75.9442 0.784912 84.4437 9.25459 84.4437 19.7025Z" fill="#004C96"/>
<path d="M74.1493 25.7071C74.8905 26.446 74.8905 27.6457 74.1493 28.3846C73.4079 29.1128 72.2045 29.1128 71.4739 28.3846L65.4248 22.3549L59.3651 28.3846C58.6345 29.1128 57.4311 29.1128 56.6898 28.3739C55.9485 27.6457 55.9485 26.446 56.6898 25.7071L62.7387 19.6775L56.6898 13.6479C55.9485 12.9089 55.9485 11.7093 56.6898 10.9812C57.4311 10.2423 58.6345 10.2423 59.3651 10.9704L65.4248 17.0108L71.4739 10.9704C72.2045 10.2423 73.4079 10.2423 74.1493 10.9704C74.8905 11.7093 74.8905 12.9089 74.1493 13.6479L68.1002 19.6775L74.1493 25.7071Z" fill="white"/>
</svg>
