<svg width="20" height="22" viewBox="0 0 20 22" fill="none" xmlns="http://www.w3.org/2000/svg">
<path opacity="0.4" d="M10 5.43994V8.76994" stroke="#004C96" stroke-width="1.5" stroke-miterlimit="10" stroke-linecap="round"/>
<path d="M10.0199 1C6.3399 1 3.3599 3.98 3.3599 7.66V9.76C3.3599 10.44 3.0799 11.46 2.7299 12.04L1.4599 14.16C0.679898 15.47 1.2199 16.93 2.6599 17.41C7.4399 19 12.6099 19 17.3899 17.41C18.7399 16.96 19.3199 15.38 18.5899 14.16L17.3199 12.04C16.9699 11.46 16.6899 10.43 16.6899 9.76V7.66C16.6799 4 13.6799 1 10.0199 1Z" stroke="#004C96" stroke-width="1.5" stroke-miterlimit="10" stroke-linecap="round"/>
<path opacity="0.4" d="M13.3299 17.8201C13.3299 19.6501 11.8299 21.1501 9.99992 21.1501C9.08992 21.1501 8.24992 20.7701 7.64992 20.1701C7.04992 19.5701 6.66992 18.7301 6.66992 17.8201" stroke="#004C96" stroke-width="1.5" stroke-miterlimit="10"/>
</svg>
